<?xml version="1.0" standalone="no"?>
<!DOCTYPE svg PUBLIC "-//W3C//DTD SVG 20010904//EN"
 "http://www.w3.org/TR/2001/REC-SVG-20010904/DTD/svg10.dtd">
<svg version="1.0" xmlns="http://www.w3.org/2000/svg"
 width="1200.000000pt" height="1200.000000pt" viewBox="0 0 1200.000000 1200.000000"
 preserveAspectRatio="xMidYMid meet">
<metadata>
Created by potrace 1.11, written by Peter Selinger 2001-2013
</metadata>
<g transform="translate(0.000000,1200.000000) scale(0.100000,-0.100000)"
fill="#000000" stroke="none">
<path d="M3160 8853 c-165 -5 -421 -23 -469 -34 -25 -5 -52 -16 -61 -23 -8 -7
-40 -23 -71 -35 -63 -25 -119 -73 -119 -103 0 -23 43 -43 115 -53 28 -4 71
-16 97 -26 25 -10 149 -50 275 -89 299 -94 451 -166 533 -255 25 -26 25 -27 5
-41 -11 -8 -49 -23 -86 -34 -70 -21 -119 -52 -119 -75 0 -23 37 -42 158 -79
118 -37 172 -61 172 -75 0 -13 -64 -49 -139 -80 -121 -49 -110 -81 43 -132
118 -39 143 -57 157 -115 13 -53 10 -371 -4 -582 l-12 -172 112 -132 c161
-187 161 -186 43 -438 -61 -131 -123 -290 -177 -455 l-20 -60 -63 60 c-43 41
-71 79 -90 120 -15 33 -56 98 -92 145 -36 47 -72 99 -81 115 -8 17 -63 82
-122 145 -59 63 -125 141 -148 172 -22 32 -42 58 -44 58 -3 0 10 -25 27 -55
l31 -55 -26 -10 c-46 -17 -185 -38 -303 -46 -104 -6 -114 -5 -135 13 -12 11
-29 23 -37 26 -13 4 -13 5 0 10 8 3 26 8 40 11 41 9 90 44 90 64 0 28 -34 39
-172 57 -67 10 -127 20 -131 25 -5 4 30 29 77 55 84 47 108 71 85 86 -7 4 -57
10 -113 14 -144 9 -158 12 -154 38 2 15 12 24 33 28 42 9 233 10 402 2 l142
-6 12 -29 c6 -16 15 -31 19 -33 4 -3 -3 21 -16 53 -13 31 -24 78 -24 104 0 42
-5 52 -47 99 -35 37 -62 83 -98 168 -48 108 -73 158 -154 302 -33 61 -58 126
-96 252 -17 58 -32 88 -57 111 -18 18 -41 45 -51 59 -10 15 -33 31 -55 36 -66
18 -553 61 -952 85 -371 23 -674 48 -716 60 -55 16 -206 36 -275 36 -45 0 -48
-2 -137 -94 -106 -110 -112 -128 -94 -292 12 -107 36 -185 71 -230 11 -15 21
-35 21 -44 0 -10 19 -42 41 -70 23 -29 75 -107 117 -174 41 -66 105 -157 142
-201 37 -44 121 -152 186 -240 212 -285 425 -544 544 -660 39 -38 82 -90 95
-115 13 -25 44 -65 70 -90 26 -25 72 -79 102 -120 69 -93 609 -633 678 -677
85 -55 95 -63 109 -97 7 -17 53 -68 101 -112 49 -43 98 -90 109 -102 12 -13
50 -44 86 -69 36 -26 106 -79 156 -120 51 -40 108 -80 128 -88 20 -8 36 -20
36 -25 0 -5 18 -19 39 -30 22 -11 82 -56 133 -101 51 -45 118 -97 148 -117 30
-19 118 -76 195 -127 77 -51 178 -115 224 -141 46 -27 109 -70 140 -96 97 -81
161 -120 293 -179 71 -32 142 -67 158 -79 59 -42 201 -100 268 -110 170 -25
398 -6 537 45 54 19 99 34 100 33 1 -2 21 -32 45 -68 71 -108 229 -255 355
-330 179 -107 173 -105 201 -89 14 7 86 77 159 154 85 89 156 155 194 179 33
20 131 63 218 95 87 33 217 84 288 114 331 140 522 170 1230 197 324 12 392
17 510 35 109 17 704 49 1074 57 l105 2 22 -157 c25 -182 27 -187 54 -187 34
0 56 16 154 115 51 52 104 98 117 103 13 5 87 12 164 16 244 12 489 36 510 50
11 7 43 18 70 24 28 6 115 32 194 57 79 25 164 46 189 48 l45 2 31 -94 c33
-100 47 -118 89 -107 37 9 80 77 155 241 35 76 77 158 94 181 34 47 124 116
201 154 70 34 85 64 104 207 23 172 49 267 89 317 100 124 181 275 191 353 12
105 -38 213 -117 253 -41 21 -193 59 -492 124 -194 42 -283 68 -282 81 1 14
115 68 222 105 151 53 177 92 78 120 -25 7 -52 20 -61 30 -19 21 -46 116 -38
135 2 8 24 25 48 39 68 40 67 73 -2 103 -18 7 -33 15 -33 18 0 2 17 13 38 24
48 25 96 76 87 92 -11 16 -119 6 -219 -21 -96 -27 -108 -20 -114 67 -3 49 0
62 18 83 18 21 21 34 18 77 -3 29 -8 56 -11 59 -12 12 -55 -25 -114 -98 -141
-174 -110 -156 -446 -253 -126 -36 -245 -74 -265 -84 -20 -10 -93 -29 -162
-41 -69 -13 -185 -40 -259 -61 -73 -22 -144 -39 -156 -39 -33 0 -49 24 -42 67
8 45 31 70 130 139 43 31 81 62 84 70 8 21 -14 67 -45 97 -15 14 -55 36 -89
50 -105 41 -270 146 -324 205 -27 29 -49 57 -49 61 0 18 112 168 197 264 219
248 550 520 955 785 105 68 319 174 438 216 41 15 86 35 100 45 14 10 44 28
67 39 52 27 60 47 29 75 -53 49 -211 79 -527 102 -119 8 -239 22 -265 30 -107
32 -920 27 -960 -5 -7 -7 -66 -18 -131 -26 -202 -25 -715 -122 -795 -150 -22
-8 -44 -14 -48 -14 -4 0 -10 20 -13 45 -5 51 -30 85 -60 85 -24 0 -226 -80
-312 -123 -33 -16 -85 -46 -115 -67 -30 -20 -118 -71 -195 -113 -78 -42 -174
-101 -214 -132 -84 -64 -101 -68 -101 -24 0 17 -9 48 -19 68 -11 20 -22 48
-25 64 -4 15 -11 27 -16 27 -27 0 -245 -217 -330 -329 -35 -46 -67 -44 -124 6
-25 22 -98 70 -163 108 -65 37 -170 107 -233 154 -168 127 -387 283 -466 332
-38 23 -103 67 -144 98 -85 64 -195 120 -350 180 -58 22 -132 51 -166 65 -78
33 -318 95 -564 146 -107 22 -226 49 -265 60 -38 10 -115 24 -170 29 -230 24
-802 36 -1205 24z m500 -228 c482 -39 583 -56 870 -146 448 -141 737 -254 862
-339 193 -132 728 -607 843 -749 69 -86 99 -139 170 -299 34 -79 67 -139 79
-147 24 -15 172 -28 586 -51 335 -18 297 -10 720 -149 146 -47 287 -89 314
-92 47 -6 48 -6 41 18 -4 13 -11 28 -16 33 -15 17 -10 45 10 56 41 22 92 11
170 -34 81 -47 351 -180 388 -191 48 -14 33 67 -65 333 -7 19 24 14 77 -12
128 -65 511 -307 544 -344 18 -20 17 -21 -75 -64 -150 -71 -403 -175 -675
-276 -66 -25 -75 -26 -119 -14 -26 7 -149 62 -273 121 -316 152 -440 196 -825
291 -277 69 -692 137 -712 117 -4 -3 13 -30 36 -59 l42 -53 -64 -6 c-34 -4
-166 -12 -293 -18 -583 -30 -846 -79 -1155 -215 -184 -82 -260 -130 -238 -152
4 -4 36 0 70 9 217 54 888 86 1213 57 187 -17 684 -148 990 -262 172 -65 255
-91 263 -84 3 4 -2 19 -11 34 -63 96 -118 249 -103 287 8 21 51 16 196 -21
125 -33 223 -78 218 -101 -2 -9 -14 -20 -27 -23 -34 -8 -81 -69 -88 -116 -7
-48 -19 -64 -47 -64 -12 0 -31 -6 -42 -14 -19 -14 -18 -15 6 -41 18 -19 62
-38 170 -71 321 -99 511 -164 636 -218 73 -31 141 -56 153 -56 29 0 27 27 -5
73 -14 21 -32 54 -40 74 -13 31 -13 38 0 59 22 33 84 47 171 39 129 -12 169
11 205 120 35 105 153 265 195 265 23 0 180 -56 258 -92 74 -34 107 -67 107
-105 0 -40 -16 -58 -88 -101 -72 -43 -88 -62 -69 -81 16 -16 63 -14 212 9 270
42 298 44 385 26 44 -9 102 -16 129 -16 59 0 108 -16 121 -40 6 -10 10 -38 10
-63 0 -56 -13 -68 -155 -141 -60 -31 -119 -64 -130 -72 -18 -13 -18 -15 -2
-32 39 -38 206 -13 365 55 l87 38 260 0 c245 0 263 -2 315 -23 31 -12 71 -35
90 -52 l35 -30 -30 -25 c-16 -14 -50 -40 -74 -58 -64 -46 -67 -55 -47 -118 37
-116 186 -329 282 -403 30 -22 54 -48 54 -56 0 -24 -141 -153 -205 -187 -143
-75 -518 -128 -905 -127 l-225 1 -135 36 c-324 87 -576 182 -820 310 -526 276
-914 429 -1375 542 -751 184 -1138 229 -1755 207 -227 -8 -237 -9 -285 -35
-59 -31 -85 -53 -109 -90 -16 -23 -16 -30 -5 -45 31 -40 168 -189 306 -333
l147 -153 -115 -17 -114 -17 -165 166 c-224 226 -300 346 -303 483 -3 92 34
127 161 155 151 33 765 26 1030 -11 109 -16 412 -74 520 -101 35 -9 65 -14 68
-11 3 2 -25 34 -61 69 -57 57 -81 98 -57 98 31 0 603 -208 864 -314 73 -30
286 -116 473 -191 466 -188 514 -209 640 -275 223 -118 515 -221 515 -182 0
12 -34 30 -148 78 -123 53 -223 105 -411 216 -73 44 -143 83 -156 88 -12 5
-49 25 -81 46 -83 53 -619 319 -799 397 -82 35 -249 108 -370 162 -546 242
-900 352 -1281 400 -151 19 -331 19 -428 1 -147 -29 -152 -53 -15 -78 272 -49
336 -65 323 -78 -5 -5 -187 -10 -404 -12 -444 -5 -416 -1 -635 -93 -192 -80
-225 -117 -225 -252 0 -61 5 -89 24 -128 46 -99 177 -259 419 -515 71 -74 142
-152 158 -172 l30 -37 -98 -30 c-172 -52 -253 -64 -389 -57 -100 5 -128 3
-160 -10 -63 -27 -471 -154 -494 -154 -41 0 -18 31 49 65 38 19 73 39 76 45 4
6 1 25 -6 42 -11 27 -15 29 -43 23 -91 -20 -116 -24 -166 -24 -30 -1 -61 3
-69 8 -14 9 -7 14 122 85 20 11 28 22 25 38 -2 19 -17 28 -83 49 -48 16 -80
32 -80 40 0 22 255 99 327 99 41 0 101 -39 233 -150 83 -70 111 -87 123 -75 4
4 -51 62 -123 128 -213 198 -390 379 -417 427 -67 116 -63 350 8 597 33 117
66 168 212 336 68 77 131 151 139 164 21 31 6 48 -61 67 -147 43 -348 243
-486 483 l-45 78 0 185 c0 216 7 269 41 310 38 44 74 40 190 -21 l96 -50 -7
38 c-14 79 -83 162 -147 178 -38 10 -35 25 5 25 47 -1 133 -23 231 -60 118
-45 147 -32 79 34 -42 41 -101 83 -323 229 -85 56 -156 108 -158 115 -7 24 60
12 172 -32 125 -49 157 -57 163 -39 16 47 -605 477 -919 634 -54 27 -96 54
-93 59 9 15 295 12 505 -5z m6569 -504 c30 -19 -137 -118 -589 -346 -386 -195
-626 -326 -901 -493 l-186 -113 -64 15 c-276 65 -492 154 -525 218 -31 61 18
104 241 213 287 140 614 270 838 335 249 72 626 139 967 173 74 8 206 6 219
-2z m-9661 -509 c69 -69 342 -448 342 -475 0 -5 -14 -7 -32 -3 -46 8 -100 70
-222 255 -101 153 -146 230 -146 251 0 19 20 10 58 -28z m1850 -89 c30 -22
161 -310 169 -375 5 -34 3 -39 -21 -48 -31 -11 -259 -12 -387 -1 -66 6 -93 13
-114 29 -15 12 -37 22 -48 22 -19 0 -19 1 -3 19 9 10 34 21 54 25 20 3 48 15
62 26 23 18 24 20 9 35 -9 9 -97 42 -195 74 l-178 57 119 0 c109 -1 124 1 162
23 24 14 46 34 49 45 8 24 -19 46 -58 46 -15 0 -28 4 -28 9 0 29 77 40 248 37
114 -2 136 -5 160 -23z m-1252 -745 c69 -61 284 -344 284 -375 0 -15 -33 -17
-60 -3 -18 10 -224 245 -271 310 -36 49 -41 67 -23 85 21 21 28 19 70 -17z
m1976 -658 c103 -16 114 -25 277 -203 78 -85 127 -187 90 -187 -6 0 -23 -8
-37 -19 -52 -35 -65 -38 -445 -81 -205 -24 -197 -24 -197 -6 0 9 24 24 58 36
128 48 256 130 235 151 -5 5 -96 13 -201 17 -172 7 -231 16 -195 29 7 2 29 16
50 30 21 14 78 41 127 59 49 18 93 37 99 43 15 15 -30 37 -112 55 -135 30
-177 59 -103 71 20 4 42 8 47 10 22 8 254 4 307 -5z m-1297 -162 c164 -166
363 -390 402 -451 57 -91 2 -49 -184 138 -182 184 -381 404 -404 447 -8 15 -6
18 13 18 16 0 66 -44 173 -152z m6463 32 c23 -10 45 -26 48 -35 14 -36 -64
-85 -135 -85 -31 0 -41 4 -46 20 -7 22 1 74 17 103 12 23 61 22 116 -3z
m-4515 -556 c53 -35 188 -165 210 -203 l18 -31 -43 -19 c-85 -36 -179 -63
-226 -64 l-47 -2 -29 57 c-29 58 -46 70 -114 83 -31 6 -32 8 -18 24 29 32 20
59 -26 82 -78 39 -78 41 19 66 185 48 192 49 256 7z m7615 -16 c-5 -15 -74
-35 -84 -25 -4 3 -4 13 -1 22 8 19 91 22 85 3z m-8137 -61 c-16 -16 -26 0 -10
19 9 11 15 12 17 4 2 -6 -1 -17 -7 -23z m7828 -58 c39 -14 37 -23 -17 -62 -34
-25 -44 -28 -57 -17 -15 12 -21 71 -8 83 10 10 46 8 82 -4z m-8270 -338 c80
-77 142 -144 138 -148 -12 -12 -140 84 -218 164 -87 89 -199 221 -199 236 0
13 108 -85 279 -252z m3446 164 c30 -29 35 -104 10 -125 -28 -23 -98 -24 -148
-2 -111 49 -93 116 38 145 49 11 77 6 100 -18z m405 10 c35 -18 45 -49 35
-111 -14 -93 -46 -124 -130 -124 -60 0 -103 19 -142 63 -59 68 -53 143 15 171
50 20 184 21 222 1z m382 -10 c23 -9 28 -27 34 -129 7 -106 -1 -122 -61 -136
-71 -17 -111 -12 -144 16 -31 26 -61 101 -61 153 0 40 32 95 60 103 27 8 145
3 172 -7z m662 -59 c49 -20 60 -64 53 -192 -7 -112 -23 -171 -49 -188 -27 -16
-86 20 -120 74 -30 47 -68 156 -68 195 0 43 88 125 133 125 10 0 33 -6 51 -14z
m-298 -21 c20 -27 17 -103 -6 -153 -34 -75 -136 -94 -167 -32 -22 44 -10 161
20 199 17 21 135 10 153 -14z m682 -111 c28 -18 27 -23 -2 -131 -14 -48 -27
-100 -30 -115 -4 -16 -13 -28 -21 -28 -24 0 -85 61 -110 111 -31 59 -43 150
-24 166 30 25 145 23 187 -3z m-4273 -74 c-3 -5 -13 -10 -21 -10 -8 0 -12 5
-9 10 3 6 13 10 21 10 8 0 12 -4 9 -10z m4646 -50 c25 -14 24 -50 -2 -131 -25
-76 -46 -119 -58 -119 -16 0 -148 148 -165 185 -20 40 -11 61 27 68 46 9 179
7 198 -3z m-970 -87 c125 -105 199 -177 199 -194 0 -21 -94 -89 -123 -89 -31
0 -82 61 -106 125 -39 103 -49 195 -23 195 5 0 28 -17 53 -37z m432 -143 l62
-60 -43 0 c-87 0 -149 50 -123 99 18 33 38 26 104 -39z m291 29 c27 -32 33
-54 16 -64 -24 -15 -82 58 -65 84 10 18 22 13 49 -20z m371 7 c28 -29 42 -73
27 -88 -7 -7 -20 -5 -44 9 -39 23 -58 64 -38 87 17 22 27 20 55 -8z m-5288
-55 c183 -143 307 -246 311 -258 11 -35 -100 17 -201 94 -80 62 -227 204 -227
221 0 25 30 10 117 -57z m4021 -54 c13 -12 33 -37 44 -55 28 -45 14 -54 -74
-49 -87 5 -120 26 -116 70 2 25 11 36 38 50 41 20 74 15 108 -16z m3751 -113
c-70 -75 -426 -202 -714 -254 -115 -21 -481 -47 -509 -37 -12 5 -16 19 -16 55
l0 49 153 7 c331 14 621 67 992 180 44 14 89 25 99 25 18 1 17 -1 -5 -25z
m-4246 -33 c13 -5 81 -21 151 -36 180 -37 327 -35 646 7 239 32 254 33 605 32
484 -1 780 -24 888 -69 42 -17 77 -59 77 -90 0 -30 -28 -35 -209 -35 -80 0
-209 -7 -286 -15 -77 -8 -273 -19 -435 -25 -362 -12 -446 -16 -675 -36 -608
-51 -623 -53 -840 -124 -82 -26 -217 -69 -300 -95 -188 -59 -320 -111 -459
-183 -118 -60 -153 -90 -247 -213 -83 -109 -104 -113 -200 -40 -69 53 -268
252 -288 289 -6 12 -9 27 -6 32 15 25 143 76 392 159 148 48 349 121 447 161
197 79 178 77 351 50 83 -13 260 -17 293 -6 43 14 24 46 -52 87 -37 20 -77 46
-88 57 -20 19 -20 19 24 26 23 4 70 22 103 41 66 38 72 39 108 26z m2597 -51
c50 -27 89 -148 70 -219 -21 -80 -49 -45 -104 129 -15 45 -24 86 -21 91 8 12
32 12 55 -1z m350 -77 c-2 -136 -78 -346 -156 -433 -61 -67 -78 -50 -69 64 15
177 38 343 51 364 13 20 22 22 94 22 70 0 80 -2 80 -17z m1430 -48 c7 -9 9
-26 5 -47 -11 -47 -59 -151 -78 -167 -15 -12 -18 -10 -27 15 -21 54 -24 151
-7 178 23 34 86 47 107 21z"/>
<path d="M3840 8388 c0 -18 65 -64 247 -177 72 -44 179 -115 238 -156 58 -41
165 -111 238 -157 173 -108 297 -196 481 -344 179 -143 296 -253 296 -276 0
-19 -5 -21 -225 -72 -279 -65 -290 -76 -123 -131 151 -50 260 -93 277 -110 17
-17 3 -26 -264 -170 -340 -183 -338 -190 35 -106 166 37 291 53 485 61 116 4
218 11 228 15 19 8 23 46 6 77 -6 11 -9 21 -7 23 2 2 55 -3 118 -11 151 -19
315 -23 331 -7 24 24 -41 113 -206 278 -226 227 -427 381 -780 601 -279 172
-1231 648 -1344 670 -23 5 -31 3 -31 -8z"/>
<path d="M2865 6730 c9 -16 18 -30 21 -30 2 0 -2 14 -11 30 -9 17 -18 30 -21
30 -2 0 2 -13 11 -30z"/>
</g>
</svg>
